<?xml version="1.0" encoding="UTF-8"?>
<svg version="1.1" xmlns="http://www.w3.org/2000/svg" width="1024" height="1024" viewBox="0 0 1024 1024">
<path d="M0 0 C14.2057224 -0.07065291 28.41141685 -0.1230591 42.61728001 -0.15543652 C49.21602602 -0.17098827 55.81465271 -0.19203123 62.41333008 -0.22631836 C68.8000446 -0.25929051 75.18664548 -0.27693152 81.57343864 -0.28463173 C83.9910657 -0.29010815 86.40868765 -0.30079843 88.82626534 -0.31719017 C126.10818976 -0.55955499 167.1378152 4.03762654 196 30 C197.06154297 30.93779297 197.06154297 30.93779297 198.14453125 31.89453125 C218.78488718 51.23214283 226.32207608 78.46509963 227.21875 105.8046875 C227.90399423 137.91842648 220.34086958 167.93391351 197.66967773 191.61206055 C179.44622639 210.19842558 154.32021173 219.63017154 129 224 C127.37384766 224.28810547 127.37384766 224.28810547 125.71484375 224.58203125 C110.21467135 227.14999783 94.86286649 227.13539457 79.19921875 227.09765625 C76.9085137 227.09578798 74.61780825 227.09436601 72.32710266 227.09336853 C66.33821482 227.08957555 60.34935177 227.07977323 54.36047363 227.06866455 C48.23315771 227.05838074 42.10583772 227.05385606 35.97851562 227.04882812 C23.98566628 227.03814766 11.99283521 227.02111052 0 227 C-0.05384521 224.70858714 -0.09272087 222.41681812 -0.125 220.125 C-0.14820312 218.84882812 -0.17140625 217.57265625 -0.1953125 216.2578125 C0 213 0 213 2 211 C3.94412895 210.59190296 5.906863 210.26947597 7.875 210 C11.68048188 209.47639561 14.68649322 208.96348083 18 207 C23.33201557 199.56401636 22.55823089 191.27805897 22.50170898 182.50561523 C22.50549594 180.83108059 22.51099908 179.15654909 22.51808167 177.48202515 C22.53200344 172.95104751 22.52089011 168.420451 22.50437045 163.88949466 C22.49048494 159.14019926 22.49698393 154.39092521 22.50050354 149.64161682 C22.50320263 141.66832359 22.48975505 133.69518117 22.46655273 125.72192383 C22.43993578 116.51166496 22.43819993 107.30165802 22.4499411 98.09137386 C22.46072984 89.21946844 22.45452379 80.3476539 22.44038582 71.47575569 C22.43463645 67.7051789 22.43470041 63.93466885 22.43945122 60.16409111 C22.44423266 55.72263617 22.43407107 51.28145622 22.41249657 46.84005356 C22.40694475 45.21270106 22.40644863 43.58532205 22.41144943 41.95796776 C22.41743172 39.73159936 22.40484206 37.50606347 22.38768005 35.2797699 C22.38403521 33.41351534 22.38403521 33.41351534 22.38031673 31.50955868 C21.82037849 26.34245466 20.42973881 22.3921141 16.625 18.6875 C11.44883147 15.35996309 7.00559077 14.70065226 1 14 C0 13 0 13 -0.09765625 10.05859375 C-0.08605469 8.86363281 -0.07445313 7.66867187 -0.0625 6.4375 C-0.05347656 5.23996094 -0.04445313 4.04242188 -0.03515625 2.80859375 C-0.02355469 1.88175781 -0.01195313 0.95492188 0 0 Z " fill="#E2B756" transform="translate(78,383)"/>
<path d="M0 0 C12.96318747 -0.07018541 25.92632814 -0.12315339 38.88966846 -0.15543652 C44.91211068 -0.17094775 50.93442085 -0.19191251 56.95678711 -0.22631836 C156.56926391 -0.77984237 156.56926391 -0.77984237 191 30 C192.23169922 31.09054687 192.23169922 31.09054687 193.48828125 32.203125 C214.2310949 51.68782087 222.4776474 79.32520164 224.1875 107.0390625 C224.88854642 138.8490436 215.34267269 168.33193163 194 192 C193.40445313 192.67933594 192.80890625 193.35867188 192.1953125 194.05859375 C169.73806273 218.24762149 133.39731124 225.17257143 102 227 C93.8485658 227.29591315 85.69433796 227.23589574 77.5390625 227.1953125 C75.28364184 227.19156931 73.02821952 227.18872854 70.77279663 227.18673706 C64.91716802 227.1792032 59.06164311 227.15964645 53.20605469 227.1373291 C47.19858197 227.11664616 41.19109203 227.107688 35.18359375 227.09765625 C23.45568431 227.07638787 11.72785087 227.04238044 0 227 C-0.02685095 224.52076199 -0.04676547 222.0418116 -0.0625 219.5625 C-0.07087891 218.85544922 -0.07925781 218.14839844 -0.08789062 217.41992188 C-0.09653588 215.61306441 -0.05220011 213.80612397 0 212 C2.31754821 209.68245179 7.56143106 210.08624727 10.703125 209.6953125 C14.71783477 208.84860831 17.87003233 207.63845313 20.25 204.1875 C21.96325032 199.19051991 22.12770515 194.18964422 22.14044189 188.94764709 C22.14341302 188.26142271 22.14638414 187.57519832 22.1494453 186.86817926 C22.15807866 184.58145915 22.15963595 182.29479172 22.16113281 180.00805664 C22.16576464 178.36337677 22.17078979 176.71869796 22.17617798 175.07402039 C22.18926537 170.61537058 22.19573931 166.15673581 22.20018864 161.69806981 C22.20312416 158.91095418 22.20722978 156.12384262 22.21169281 153.33672905 C22.22535562 144.61168756 22.23502927 135.88665543 22.2388947 127.16160399 C22.24337818 117.09787487 22.26094464 107.03428139 22.2898953 96.97059351 C22.31151531 89.18443749 22.32159909 81.39831964 22.32293582 73.61213392 C22.32398325 68.96458078 22.32987834 64.31715535 22.34775543 59.66963387 C22.36424252 55.29883336 22.36638855 50.92825653 22.35761642 46.55743599 C22.3568465 44.95587057 22.36118291 43.35429308 22.37107468 41.75275803 C22.38381339 39.56135258 22.37790777 37.3707372 22.36749268 35.17933655 C22.36895924 33.95469224 22.3704258 32.73004793 22.3719368 31.46829319 C21.80154752 26.14943989 20.11660039 22.32228994 16.625 18.1875 C11.96513352 14.57372599 5.63552534 14.63255897 0 14 C0 9.38 0 4.76 0 0 Z " fill="#E1B756" transform="translate(504,383)"/>
<path d="M0 0 C0.81350418 -0.01252808 1.62700836 -0.02505615 2.46516418 -0.03796387 C27.96141687 -0.35443332 50.85182552 0.47196489 71.0390625 18.2734375 C71.78929687 18.92957031 72.53953125 19.58570313 73.3125 20.26171875 C93.60468074 39.20339599 96.74678069 65.99271659 98.265625 92.1796875 C98.91105841 118.23172689 94.0094911 146.77702575 76.37890625 166.87890625 C62.25339265 181.33456541 44.05210098 187.68923504 24.05737305 188.41870117 C22.68021734 188.4318065 21.30299754 188.43919473 19.92578125 188.44140625 C18.82143486 188.44639885 18.82143486 188.44639885 17.69477844 188.45149231 C16.15451679 188.45651331 14.61424444 188.45890215 13.07397461 188.45874023 C10.71515409 188.46094818 8.35678626 188.47921218 5.99804688 188.49804688 C4.49479325 188.50097754 2.99153743 188.50296452 1.48828125 188.50390625 C0.43358894 188.51468452 0.43358894 188.51468452 -0.64241028 188.52568054 C-4.31332999 188.50842868 -5.8184972 188.3683977 -8.9609375 186.2734375 C-9.25782095 183.77303382 -9.35669854 181.51923557 -9.32843018 179.01634216 C-9.33169902 178.25988169 -9.33496786 177.50342122 -9.33833575 176.72403771 C-9.34564965 174.1757691 -9.33142812 171.62806795 -9.31738281 169.07983398 C-9.31817321 167.25852358 -9.32026901 165.43721333 -9.32357788 163.61590576 C-9.32872497 158.6594236 -9.31515093 153.703148 -9.29805088 148.74669909 C-9.2830521 143.57015649 -9.28418981 138.39361698 -9.28338623 133.21705627 C-9.27969018 124.52365577 -9.26470519 115.83033406 -9.2421875 107.13696289 C-9.21330423 95.96295145 -9.20296416 84.78900348 -9.1985054 73.61495876 C-9.19453114 64.02765981 -9.18202845 54.44037478 -9.16815853 44.85308576 C-9.16405225 41.76181841 -9.16113034 38.67055157 -9.15836334 35.57928276 C-9.15348331 30.730911 -9.14330193 25.88257808 -9.12892532 21.03422546 C-9.12438847 19.24954644 -9.1215604 17.46486218 -9.12051773 15.68017769 C-9.11878205 13.25459536 -9.11092587 10.82911147 -9.10137939 8.40354919 C-9.10224588 7.68800084 -9.10311236 6.97245249 -9.1040051 6.23522085 C-9.06089775 -1.00539436 -6.46140573 0.08822893 0 0 Z " fill="#10192D" transform="translate(157.9609375,401.7265625)"/>
<path d="M0 0 C0.83460754 0.00270905 1.66921509 0.00541809 2.52911377 0.00820923 C21.5244997 0.10158893 42.18195325 1.77847663 59.5 10.4375 C59.91064453 12.81982422 59.91064453 12.81982422 60.1328125 15.9921875 C60.25873779 17.73870605 60.25873779 17.73870605 60.38720703 19.52050781 C60.46567871 20.77186523 60.54415039 22.02322266 60.625 23.3125 C60.70991699 24.57416992 60.79483398 25.83583984 60.88232422 27.13574219 C61.52236991 37.26572082 61.66365831 47.29068456 61.5 57.4375 C54.9 57.4375 48.3 57.4375 41.5 57.4375 C41.0875 55.7875 40.675 54.1375 40.25 52.4375 C37.24366109 41.56735792 32.30577849 33.16047156 22.5 27.125 C9.86673927 20.07031116 -4.96040953 17.78342909 -19.1875 21.5625 C-26.14344779 24.19218758 -30.94835153 27.80811792 -34.4375 34.4375 C-38.12848148 42.77317294 -38.97886612 52.37493402 -36.3125 61.1875 C-30.6110918 75.84454482 -16.06721986 82.32912719 -2.5 88.4375 C-0.08819575 89.49262162 2.32515096 90.54296431 4.7421875 91.5859375 C5.3905809 91.86574966 6.0389743 92.14556183 6.70701599 92.43385315 C9.96652435 93.83732239 13.23008778 95.23004098 16.5012207 96.60620117 C27.43815999 101.23604684 38.20651567 106.31691311 47.8125 113.375 C48.39588135 113.80047119 48.9792627 114.22594238 49.58032227 114.66430664 C62.01918115 123.90652929 72.07154605 136.73198473 74.5 152.4375 C75.83620588 173.07202353 70.35534893 190.14715417 56.671875 206.01171875 C55.95515625 206.81222656 55.2384375 207.61273437 54.5 208.4375 C53.94828125 209.08332031 53.3965625 209.72914063 52.828125 210.39453125 C47.66110042 216.06035276 41.11050904 219.67593783 34.5 223.4375 C33.66339844 223.92476562 32.82679688 224.41203125 31.96484375 224.9140625 C24.88287659 228.76835515 17.30565154 230.6176681 9.5 232.4375 C8.3721106 232.70445679 8.3721106 232.70445679 7.22143555 232.97680664 C1.96264567 233.8670315 -3.40348174 233.62340898 -8.72509766 233.62280273 C-10.83387417 233.62495797 -12.94209932 233.64304756 -15.05078125 233.66210938 C-27.50475191 233.71517612 -39.6961032 232.56970759 -51.75 229.25 C-52.52649902 229.04149414 -53.30299805 228.83298828 -54.10302734 228.61816406 C-77.94209578 221.99540422 -77.94209578 221.99540422 -81.5 218.4375 C-81.73262532 216.08161904 -81.90435814 213.74893441 -82.03515625 211.38671875 C-82.09975792 210.30319626 -82.09975792 210.30319626 -82.16566467 209.19778442 C-82.30369652 206.84047979 -82.43368184 204.48282492 -82.5625 202.125 C-82.60735535 201.33104828 -82.65221069 200.53709656 -82.69842529 199.71908569 C-83.37854278 187.60497321 -83.69418408 175.57400518 -83.5 163.4375 C-77.23 163.4375 -70.96 163.4375 -64.5 163.4375 C-63.96375 165.685625 -63.4275 167.93375 -62.875 170.25 C-59.12812783 184.74514151 -51.47605295 196.12872915 -38.48828125 203.87109375 C-24.99039098 210.94645845 -9.72988195 214.98015397 5.3515625 211.1171875 C13.74534376 208.46170034 21.37166396 203.42613296 26.109375 195.87109375 C27.35025047 193.4221895 28.4670748 190.98040421 29.5 188.4375 C29.86480469 187.64085937 30.22960937 186.84421875 30.60546875 186.0234375 C33.21268804 178.48641056 32.13412173 169.83858413 28.8125 162.7109375 C19.3481741 146.31737299 -1.87745159 139.25777006 -18.5625 132.4375 C-32.28518072 126.81259135 -44.74325582 120.62182836 -56.5 111.4375 C-57.53125 110.695 -58.5625 109.9525 -59.625 109.1875 C-73.0651769 96.33167862 -79.2657241 80.33104144 -79.8125 61.9375 C-79.46353129 43.68207427 -70.50043949 29.70461596 -57.68359375 17.3125 C-41.05615593 3.03491475 -21.11223656 -0.16059615 0 0 Z " fill="#E2B856" transform="translate(410.5,379.5625)"/>
<path d="M0 0 C0.74126633 -0.01535294 1.48253265 -0.03070587 2.2462616 -0.04652405 C28.8603427 -0.49415593 50.45189795 2.03605907 70.625 21.16796875 C90.18198962 40.72495837 93.88978797 66.01978579 93.95117188 92.57421875 C93.95109131 93.35345703 93.95101074 94.13269531 93.95092773 94.93554688 C93.95312155 97.30486849 93.97137256 99.67372846 93.99023438 102.04296875 C94.03681726 114.12798955 92.76606697 125.25914636 89.015625 136.80859375 C88.75322021 137.62247559 88.49081543 138.43635742 88.22045898 139.27490234 C84.8211457 149.51037565 80.42315973 159.4931717 72.765625 167.30859375 C72.105625 167.30859375 71.445625 167.30859375 70.765625 167.30859375 C70.55164063 167.87578125 70.33765625 168.44296875 70.1171875 169.02734375 C64.42496036 178.63503348 50.84471678 183.96363472 40.57421875 186.6953125 C32.86027373 188.37972052 25.46044068 188.45953664 17.578125 188.43359375 C16.42248047 188.43746094 15.26683594 188.44132813 14.07617188 188.4453125 C12.92826172 188.44402344 11.78035156 188.44273437 10.59765625 188.44140625 C9.57389893 188.44027832 8.5501416 188.43915039 7.49536133 188.43798828 C4.15554392 188.32212108 0.86132962 188.08445262 -2.46748352 187.80050659 C-3.54757848 187.70886168 -4.62767344 187.61721676 -5.74049854 187.52279472 C-6.56347777 187.4521084 -7.386457 187.38142208 -8.234375 187.30859375 C-8.25770118 163.07447835 -8.27535279 138.84036462 -8.28618717 114.60624027 C-8.29135073 103.35475859 -8.29839456 92.10328386 -8.30981445 80.85180664 C-8.31975947 71.04880835 -8.32622799 61.2458151 -8.32846349 51.44281191 C-8.32977091 46.24879008 -8.33285871 41.05478268 -8.34010506 35.86076546 C-8.34686241 30.97796154 -8.34899255 26.09517807 -8.34748268 21.21236992 C-8.34775914 19.41478744 -8.34976595 17.61720431 -8.35358047 15.81962585 C-8.35851328 13.37643413 -8.35737483 10.93332088 -8.35462952 8.49012756 C-8.35754236 7.76932402 -8.3604552 7.04852048 -8.36345631 6.30587441 C-8.3421611 -0.64514162 -6.28314795 0.12240846 0 0 Z " fill="#0F192D" transform="translate(583.234375,401.69140625)"/>
<path d="M0 0 C3.14581423 -0.02888514 6.29159469 -0.04675923 9.4375 -0.0625 C10.33533203 -0.07087891 11.23316406 -0.07925781 12.15820312 -0.08789062 C13.01220703 -0.09111328 13.86621094 -0.09433594 14.74609375 -0.09765625 C15.53685303 -0.10289307 16.3276123 -0.10812988 17.14233398 -0.11352539 C19 0 19 0 20 1 C20.02856838 11.43954575 17.61987168 21.56114212 15.375 31.6875 C14.9861086 33.47021287 14.59761409 35.25301236 14.20947266 37.03588867 C10.35732538 54.64841867 6.36138618 72.22993352 2.375 89.8125 C2.2175103 90.50763577 2.0600206 91.20277153 1.89775848 91.91897202 C-13.2380613 158.7141839 -13.2380613 158.7141839 -18 173 C-24.93 173 -31.86 173 -39 173 C-37.87535278 162.87817498 -37.87535278 162.87817498 -37.01953125 158.70703125 C-36.8282666 157.76335693 -36.63700195 156.81968262 -36.43994141 155.84741211 C-36.12935791 154.34513062 -36.12935791 154.34513062 -35.8125 152.8125 C-35.35779589 150.58078559 -34.90338115 148.34901221 -34.44921875 146.1171875 C-34.21122559 144.9528418 -33.97323242 143.78849609 -33.72802734 142.58886719 C-33.00034196 139.00168573 -32.28854555 135.41171968 -31.58203125 131.8203125 C-24.50733787 95.90834558 -16.28382849 60.26996061 -7.65234375 24.70166016 C-7.04139493 22.17143574 -6.44120481 19.63890695 -5.84375 17.10546875 C-5.50033701 15.67439825 -5.15661323 14.24340228 -4.8125 12.8125 C-4.38904297 11.02779297 -4.38904297 11.02779297 -3.95703125 9.20703125 C-2.96955156 5.89796666 -1.63506646 3.03523605 0 0 Z " fill="#E2B856" transform="translate(880,414)"/>
<path d="M0 0 C2 1 2 1 3.125 4.3125 C3.90754239 7.90184734 4.33875669 11.45834949 4.5625 15.125 C4.62566406 16.09695313 4.68882812 17.06890625 4.75390625 18.0703125 C3.60234042 22.54530924 0.63948595 24.36047072 -3 27 C-3.89174927 27.648479 -3.89174927 27.648479 -4.80151367 28.31005859 C-6.64169917 29.60969432 -8.50341535 30.87105247 -10.375 32.125 C-11.77673116 33.07580722 -13.17774741 34.02766908 -14.578125 34.98046875 C-15.29935547 35.4707959 -16.02058594 35.96112305 -16.76367188 36.46630859 C-21.29223031 39.57202957 -25.76338648 42.75966929 -30.23974609 45.93994141 C-34.11980356 48.69156212 -38.02787197 51.38285022 -42 54 C-37.52586303 57.65089576 -32.89906644 61.0774378 -28.25 64.5 C-27.00657837 65.41724854 -27.00657837 65.41724854 -25.73803711 66.35302734 C-19.37200975 71.03245355 -12.93972059 75.61051796 -6.43261719 80.09179688 C2.71224547 86.45149048 2.71224547 86.45149048 3.4609375 90.48046875 C3.26737088 96.57781721 2.54934959 102.09310468 1 108 C-0.73950195 108.65893555 -0.73950195 108.65893555 -3 109 C-5.02026367 108.01879883 -5.02026367 108.01879883 -7.16796875 106.45703125 C-7.96984619 105.88404297 -8.77172363 105.31105469 -9.59790039 104.72070312 C-10.45246826 104.09099609 -11.30703613 103.46128906 -12.1875 102.8125 C-14.00260132 101.50650646 -15.81770553 100.20051694 -17.6328125 98.89453125 C-18.5393457 98.23533691 -19.44587891 97.57614258 -20.37988281 96.89697266 C-23.40279822 94.70837289 -26.4559235 92.56639372 -29.51611328 90.43041992 C-36.51122338 85.54085298 -43.42655737 80.54185713 -50.3125 75.5 C-51.11953369 74.9121875 -51.92656738 74.324375 -52.75805664 73.71875 C-62.06609362 66.86781276 -62.06609362 66.86781276 -64 63 C-64.20433959 60.2326581 -64.32378498 57.52026719 -64.375 54.75 C-64.41238281 53.99847656 -64.44976563 53.24695313 -64.48828125 52.47265625 C-64.55464666 48.24739152 -64.24751706 46.37783683 -61.86328125 42.73828125 C-58.97870926 39.97963874 -56.10163452 37.69706075 -52.8125 35.4375 C-51.55925196 34.56733285 -50.30668055 33.69619061 -49.0546875 32.82421875 C-48.39436523 32.36708496 -47.73404297 31.90995117 -47.05371094 31.43896484 C-44.22338587 29.45585311 -41.44003859 27.41095741 -38.65209961 25.36889648 C-31.12924197 19.86960544 -23.49417533 14.55806157 -15.75 9.375 C-14.86884521 8.78299805 -13.98769043 8.19099609 -13.07983398 7.58105469 C-4.40898011 1.82110048 -4.40898011 1.82110048 0 0 Z " fill="#E2B956" transform="translate(821,449)"/>
<path d="M0 0 C9.77426474 1.44096621 17.86190152 9.33201785 25.53027344 15.17089844 C30.7662583 19.13518217 36.12450997 22.88129792 41.5625 26.5625 C47.6213911 30.67114126 53.6403277 34.82093133 59.5625 39.125 C60.18777588 39.57431885 60.81305176 40.0236377 61.45727539 40.48657227 C64.22386371 42.51467664 66.07577197 44.11365796 68 47 C68.27487822 49.84137272 68.41589299 52.53247725 68.4375 55.375 C68.47037109 56.13039063 68.50324219 56.88578125 68.53710938 57.6640625 C68.57358632 61.45766523 68.41586382 63.42412093 66.15234375 66.55859375 C61.582781 70.09759835 56.89398526 73.42323175 52.125 76.6875 C51.09358887 77.39865967 50.06217773 78.10981934 48.99951172 78.8425293 C5.16585924 109 5.16585924 109 1 109 C0.79572309 105.29248633 0.67205412 101.58642528 0.5625 97.875 C0.50384766 96.82828125 0.44519531 95.7815625 0.38476562 94.703125 C0.21735536 87.14574732 0.21735536 87.14574732 2.27294922 84.13647461 C4.08954074 82.53457118 5.94185221 81.2756739 8 80 C9.43829416 78.98680351 10.87576469 77.97243702 12.3125 76.95703125 C13.87256142 75.90522813 15.43515345 74.85717063 17 73.8125 C23.95131917 69.12683626 30.77674385 64.31941479 37.45507812 59.2512207 C41.79085192 56 41.79085192 56 44 56 C40.00492173 51.7307497 35.6443865 48.42665783 30.875 45.0625 C29.2782353 43.9198443 27.68189626 42.77659359 26.0859375 41.6328125 C25.25803711 41.04145508 24.43013672 40.45009766 23.57714844 39.84082031 C19.20803569 36.72002549 14.84651687 33.58970367 10.5 30.4375 C9.68128418 29.85427979 8.86256836 29.27105957 8.01904297 28.67016602 C7.25994629 28.11772217 6.50084961 27.56527832 5.71875 26.99609375 C4.71231445 26.27184204 4.71231445 26.27184204 3.68554688 25.53295898 C1.11697998 23.19691733 0.11527474 21.16266354 -0.22705078 17.70996094 C-0.21657715 16.89301758 -0.20610352 16.07607422 -0.1953125 15.234375 C-0.18886719 14.34492188 -0.18242188 13.45546875 -0.17578125 12.5390625 C-0.15902344 11.61867188 -0.14226563 10.69828125 -0.125 9.75 C-0.11597656 8.81414062 -0.10695313 7.87828125 -0.09765625 6.9140625 C-0.07413636 4.60911343 -0.04126853 2.3046884 0 0 Z " fill="#E3B957" transform="translate(918,449)"/>
<path d="M0 0 C6.27 0 12.54 0 19 0 C19.33 3.3 19.66 6.6 20 10 C18 6 18 6 17 3 C11.72 3 6.44 3 1 3 C1 8.61 1 14.22 1 20 C0.67 20 0.34 20 0 20 C0 13.4 0 6.8 0 0 Z " fill="#CBAC52" transform="translate(327,543)"/>
<path d="M0 0 C0.33 0 0.66 0 1 0 C1.33 2.31 1.66 4.62 2 7 C2.33 7 2.66 7 3 7 C3 11.62 3 16.24 3 21 C6.96 21 10.92 21 15 21 C15 21.33 15 21.66 15 22 C13.23186888 22.24915939 11.46025018 22.47366632 9.6875 22.6875 C8.70136719 22.81511719 7.71523438 22.94273437 6.69921875 23.07421875 C4 23 4 23 2.1875 21.734375 C-1.64392266 16.13848137 -0.09692595 6.46172969 0 0 Z " fill="#D6B054" transform="translate(572,568)"/>
<path d="M0 0 C0.33 0 0.66 0 1 0 C3.29612756 13.6332574 3.29612756 13.6332574 3 20 C2.01 20 1.02 20 0 20 C0 13.4 0 6.8 0 0 Z " fill="#201F2D" transform="translate(252,462)"/>
<path d="M0 0 C0.33 0.99 0.66 1.98 1 3 C-1.11770166 5.32947183 -3.03335588 6.88750845 -6 8 C-6.99 7.67 -7.98 7.34 -9 7 C-6.03 4.69 -3.06 2.38 0 0 Z " fill="#E8C459" transform="translate(795,465)"/>
<path d="M0 0 C0.33 0.66 0.66 1.32 1 2 C-0.8130666 6.63339243 -2.94775971 9.1524798 -7 12 C-5.44298069 7.32894208 -2.91552627 3.91294315 0 0 Z " fill="#090C26" transform="translate(291,554)"/>
<path d="M0 0 C0.33 0.99 0.66 1.98 1 3 C-1.30368736 4.06652192 -3.64018187 5.06421005 -6 6 C-6.66 5.67 -7.32 5.34 -8 5 C-4.04 2.525 -4.04 2.525 0 0 Z " fill="#E9C659" transform="translate(222,578)"/>
<path d="M0 0 C0 0.99 0 1.98 0 3 C-2.875 3.125 -2.875 3.125 -6 3 C-6.66 2.34 -7.32 1.68 -8 1 C-5.07175348 0.02391783 -3.04386724 -0.08226668 0 0 Z " fill="#D7B054" transform="translate(200,384)"/>
</svg>
